Coordinates
version=1
nRows=12
nColumns=24
inDegrees=yes

Units are S.I. units (second, meters, Newtons, ...)
Angles are in degrees.

endheader
time	pelvis_tilt	pelvis_list	pelvis_rotation	pelvis_tx	pelvis_ty	pelvis_tz	hip_flexion_r	hip_adduction_r	hip_rotation_r	knee_angle_r	ankle_angle_r	subtalar_angle_r	mtp_angle_r	hip_flexion_l	hip_adduction_l	hip_rotation_l	knee_angle_l	ankle_angle_l	subtalar_angle_l	mtp_angle_l	lumbar_extension	lumbar_bending	lumbar_rotation
      0.92200000	      4.98372903	     -1.70947419	     -3.08449618	      0.51305917	      1.00658852	      0.20074469	     24.38710651	     -2.80129085	     -9.88858904	    -45.05642848	      3.65202863	     -1.10043233	     27.32587552	     -9.44160926	      3.06608379	    -16.78209103	     -6.20264363	     12.68026085	      9.92088737	     -0.07383665	    -13.25443701	     -0.24649457	     -4.86307462
      0.92600000	      4.97141729	     -1.64354548	     -3.11821486	      0.51827345	      1.00590171	      0.20090439	     24.38341835	     -2.72624551	     -9.94691657	    -43.60666522	      3.47325482	     -0.94940350	     27.47706339	     -9.88031079	      3.19096299	    -16.91541555	     -5.99285331	     12.86872691	     10.07171881	      0.17292590	    -13.21497277	     -0.31751337	     -4.93478850
      0.93000000	      4.96290151	     -1.56882350	     -3.16008796	      0.52349747	      1.00517358	      0.20108444	     24.35199922	     -2.65583847	    -10.00390890	    -42.11873391	      3.27721441	     -0.78325218	     27.65621944	    -10.31874429	      3.32523946	    -17.05990416	     -5.79304156	     13.05890089	     10.22798750	      0.43484491	    -13.17810860	     -0.40040203	     -5.00038526
      0.93400000	      4.95874980	     -1.48588478	     -3.20912925	      0.52873115	      1.00440596	      0.20128376	     24.29178160	     -2.58984170	    -10.06133249	    -40.59353363	      3.06491879	     -0.60113746	     27.86265649	    -10.75678043	      3.46795954	    -17.21447176	     -5.60455909	     13.25082972	     10.39040595	      0.71053458	    -13.14453182	     -0.49438262	     -5.06075526
      0.93800000	      4.95948710	     -1.39532372	     -3.26421926	      0.53397439	      1.00360069	      0.20150109	     24.20183312	     -2.52806290	    -10.12110469	    -39.03218412	      2.83754401	     -0.40218609	     28.09510996	    -11.19421411	      3.61805945	    -17.37784923	     -5.42880151	     13.44460019	     10.55969009	      0.99864368	    -13.11488581	     -0.59865720	     -5.11688402
      0.94200000	      4.96558784	     -1.29773560	     -3.32413064	      0.53922708	      1.00275969	      0.20173511	     24.08141182	     -2.47034735	    -10.18525860	    -37.43609761	      2.59643420	     -0.18552578	     28.35176368	    -11.63077678	      3.77438573	    -17.54860600	     -5.26718185	     13.64032719	     10.73654368	      1.29788318	    -13.08976219	     -0.71242770	     -5.16983290
      0.94600000	      4.97746702	     -1.19370187	     -3.38755513	      0.54448916	      1.00188503	      0.20198444	     23.93002742	     -2.41657492	    -10.25590141	    -35.80706002	      2.34310317	      0.04967113	     28.63028701	    -12.06614758	      3.93571591	    -17.72517493	     -5.12110288	     13.83813978	     10.92163955	      1.60705511	    -13.06969092	     -0.83491104	     -5.22071782
      0.95000000	      4.99547039	     -1.08377883	     -3.45313063	      0.54976064	      1.00097892	      0.20224769	     23.74750575	     -2.36665274	    -10.33516613	    -34.14731879	      2.07923438	      0.30413513	     28.92788250	    -12.49996258	      4.10077834	    -17.90587897	     -4.99193008	     14.03816541	     11.11559807	      1.92508262	    -13.05512813	     -0.96534859	     -5.27068653
      0.95400000	      5.01986394	     -0.96849055	     -3.51946739	      0.55504159	      1.00004367	      0.20252345	     23.53405258	     -2.32050408	    -10.42515756	    -32.45967371	      1.80667954	      0.57843995	     29.24134364	    -12.93182095	      4.26827006	    -18.08895898	     -4.88096565	     14.24051256	     11.31896332	      2.25104094	    -13.04644201	     -1.10300992	     -5.32089504
      0.95800000	      5.05082285	     -0.84832671	     -3.58517237	      0.56033219	      0.99908161	      0.20281038	     23.29031232	     -2.27805465	    -10.52789350	    -30.74756591	      1.52745591	      0.87293889	     29.56712138	    -13.36128723	      4.43687212	    -18.27260227	     -4.78942403	     14.44525229	     11.53217788	      2.58418906	    -13.04389719	     -1.24719055	     -5.37248371
      0.96200000	      5.08841941	     -0.72374567	     -3.64887103	      0.56563270	      0.99809504	      0.20310720	     23.01741686	     -2.23921786	    -10.64524302	    -29.01515942	      1.24374227	      1.18770007	     29.90139844	    -13.78788913	      4.60526216	    -18.45497117	     -4.71840946	     14.65239904	     11.75555701	      2.92400178	    -13.04763880	     -1.39720426	     -5.42655379
      0.96600000	      5.13260948	     -0.59518241	     -3.70922660	      0.57094352	      0.99708621	      0.20341272	     22.71701990	     -2.20388031	    -10.77886388	    -27.26740910	      0.95787331	      1.52244421	     30.24016965	    -14.21111087	      4.77212416	    -18.63423116	     -4.66889571	     14.86189144	     11.98926331	      3.27020177	    -13.05767723	     -1.55237036	     -5.48414487
